<?xml version="1.0" encoding="UTF-8"?>
<svg id="Layer_2" xmlns="http://www.w3.org/2000/svg" viewBox="0 0 300.44 185.05">
  <defs>
    <style>
      .cls-1 {
        fill: #fffef9;
      }
    </style>
  </defs>
  <g id="Layer_1-2" data-name="Layer_1">
    <g>
      <g>
        <path class="cls-1" d="M96.31,157.95c0-.5.41-.92.92-.92h9.73c.5,0,.92.41.92.92s-.41.92-.92.92h-9.73c-.5,0-.92-.41-.92-.92Z"/>
        <path class="cls-1" d="M134.12,160.29c.6-1.01,2.2-.09,1.56.96-4.63,7.76-15.79,11.79-18.4,4.68-1.97-5.46,8.49-20.93,14.69-17.3.55.37.96.78,1.24,1.38.83,1.93-.32,4.5-1.7,6.15-.73.96-2.2-.23-1.42-1.15,1.38-1.7,2.8-4.91-.18-5.05-5.28-.28-16.57,16.93-7.62,17.81,3.63.32,9.04-2.85,11.84-7.48Z"/>
        <path class="cls-1" d="M144.9,168.73c-.92-.6-1.01-1.84-.78-3.21-.78.87-1.65,1.65-2.48,2.29-5.51,4.13-10.14.5-7.85-6.56,1.84-5.74,7.76-13.08,12.9-13.08,2.62,0,3.76,1.38,3.95,3.44l1.65-2.8c.64-1.01,2.2-.09,1.56.96-1.19,1.97-9.18,15.47-7.94,17.44,2.8,1.88,7.57-4.08,9.5-7.25.6-1.05,2.2-.09,1.56.92-1.84,3.08-5.42,7.62-8.9,8.4-1.15.28-2.2.09-3.17-.55ZM148.76,153.22c.73-5.14-4.54-3.63-8.45.6-3.26,3.53-5.6,8.49-5.28,11.52.18,1.65,1.19,2.39,2.25,2.39,4.04,0,10.69-9,11.47-14.5Z"/>
        <path class="cls-1" d="M147.47,184.15c-3.63-3.3,6.98-22.99,13.49-34.14h-1.65c-1.19,0-1.19-1.84,0-1.84h2.75c1.47-2.52,2.66-4.41,3.26-5.28,2.02-3.12,5.83-7.76,9.22-6.29,2.34,1.01,2.25,4.36.6,3.99-.46-.09-.78-.6-.69-1.1.37-1.42-2.57-3.3-7.62,4.41-.69,1.06-1.61,2.52-2.66,4.27h1.47c1.19,0,1.19,1.84,0,1.84h-2.57c-6.56,11.24-16.75,30.61-14.36,32.81,2.57,2.34,6.33-7.3,6.29-14.13,0-.73.78-1.19,1.38-.83.14.09,1.05,0,2.98-1.74,4.5-4.04,4.45-6.93,5.92-6.06.46.28.6.83.32,1.24-2.02,3.4-6.06,8.08-8.81,8.4-.23,5.78-2.66,13.59-6.01,15.1-1.19.5-2.34.23-3.3-.64Z"/>
        <path class="cls-1" d="M176.19,148.08c3.3.18,4.5,3.3,2.57,6.06-3.21,4.63-10.28,2.89-12.9,6.7-2.71,6.93,2.84,8.72,8.81,5.05,5.51-3.4,5.32-6.88,6.88-5.92.46.23.6.83.32,1.24-4.63,7.76-15.79,11.79-18.36,4.68-1.88-5,6.75-18.13,12.67-17.81ZM174.59,155.15c7.39-3.12,1.15-11.01-6.88,2.07,2.29-.96,4.91-1.24,6.88-2.07Z"/>
        <path class="cls-1" d="M192.57,157.95c0-.5.41-.92.92-.92h9.73c.5,0,.92.41.92.92s-.41.92-.92.92h-9.73c-.5,0-.92-.41-.92-.92Z"/>
      </g>
      <g>
        <g>
          <path class="cls-1" d="M51.09,112.95c-2.39,4.45-5.73,7.98-10.04,10.6s-8.94,3.93-13.9,3.93c-7.49,0-13.88-2.6-19.19-7.79-5.31-5.19-7.97-11.53-7.97-19.02s2.62-13.95,7.86-19.12c5.24-5.17,11.65-7.75,19.23-7.75,3.93,0,7.67.81,11.23,2.42,3.55,1.61,6.64,3.9,9.26,6.84,1.54,1.68,2.64,3.32,3.3,4.91h-5.83c-1.96-2.95-4.56-5.26-7.79-6.95-3.23-1.68-6.64-2.53-10.25-2.53-5.94,0-11.07,2.22-15.37,6.67-4.31,4.45-6.46,9.64-6.46,15.58s2.19,10.98,6.56,15.4c4.38,4.42,9.49,6.63,15.33,6.63,7.2,0,13.27-3.27,18.18-9.83h5.83Z"/>
          <path class="cls-1" d="M87.38,126.56h-28.42v-51.93h28.42v4.7h-23.23v18.67h22.46v4.7h-22.46v19.16h23.23v4.7Z"/>
          <path class="cls-1" d="M138.26,126.56h-5.19l-30.81-45.69h-.14v45.69h-5.19v-51.93h7.02l28.99,43.09h.14v-43.09h5.19v51.93Z"/>
          <path class="cls-1" d="M173,79.33h-11.86v47.23h-5.19v-47.23h-11.93v-4.7h28.99v4.7Z"/>
          <path class="cls-1" d="M213.63,91.4c0,4.35-1.47,8-4.42,10.95-2.95,2.95-6.62,4.56-11.02,4.84l14.67,19.37h-6.53l-17.61-23.51c5.8,0,9.52-.26,11.16-.77,2.57-.8,4.64-2.16,6.21-4.11,1.57-1.94,2.35-4.25,2.35-6.91,0-2.01-.52-3.94-1.54-5.79-1.03-1.85-2.41-3.24-4.14-4.18-2.43-1.31-5.8-1.97-10.11-1.97h-9.05v47.23h-5.19v-51.93h13.19c5.8,0,10.06.66,12.77,1.96,2.9,1.4,5.17,3.42,6.81,6.04,1.64,2.62,2.46,5.54,2.46,8.77Z"/>
          <path class="cls-1" d="M267.25,126.56h-5.68l-7.51-17.48h-24.14l-7.58,17.48h-5.4l22.18-51.93h5.83l22.32,51.93ZM252.02,104.38l-9.97-23.86-10.18,23.86h20.14Z"/>
          <path class="cls-1" d="M300.44,126.56h-26.67v-51.93h5.19v47.23h21.48v4.7Z"/>
        </g>
        <rect class="cls-1" x="217.46" y="104.38" width="17.97" height="4.7"/>
      </g>
      <g>
        <path class="cls-1" d="M119.2,31.86c-.37,0-.68.3-.68.68v6.87h-5.65v-1.73c0-.37-.3-.68-.68-.68h-17.95c-.37,0-.68.3-.68.68v1.44h-4.72c-.37,0-.68.3-.68.68v1.44h-.98v-17.06c0-.37-.3-.68-.68-.68h-21.6c-.37,0-.68.3-.68.68v9.1h-15.14c-.37,0-.68.3-.68.68v23.24h-12.22c-.37,0-.68.3-.68.68s.3.68.68.68h12.9c.37,0,.68-.3.68-.68v-23.24h14.46v15.19c0,.37.3.68.68.68s.68-.3.68-.68v-24.97h20.25v17.06c0,.37.3.68.68.68h2.34c.37,0,.68-.3.68-.68v-1.44h4.72c.37,0,.68-.3.68-.68v-1.44h16.6v1.73c0,.37.3.68.68.68h7.01c.37,0,.68-.3.68-.68v-7.55c0-.37-.3-.68-.68-.68Z"/>
        <path class="cls-1" d="M264.25,57.2h-6.9v-20.94c0-.18-.07-.35-.2-.48l-3.72-3.72c-.13-.13-.3-.2-.48-.2h-7.85c-.37,0-.68.3-.68.68s.3.68.68.68h7.57l3.32,3.32v21.34c0,.37.3.68.68.68h7.57c.37,0,.68-.3.68-.68s-.3-.68-.68-.68Z"/>
        <path class="cls-1" d="M237.59,31.86h-12.08c-.18,0-.35.07-.48.2l-3.79,3.79c-.13.13-.2.3-.2.48v1.66h-2.55v-2.95s-1.61-8.43-1.61-8.43c-.06-.32-.34-.55-.66-.55h-17.33c-.18,0-.35.07-.48.2l-7.48,7.48c-.13.13-.2.3-.2.48v2.72h-3.09l-.2-1.91c-.02-.15-.08-.3-.19-.41l-.57-.57v-2.63c0-2.06-1.5-3.77-3.47-4.12v-1.67h1.75c.37,0,.68-.3.68-.68s-.3-.68-.68-.68h-1.75v-1.91c0-.37-.3-.68-.68-.68s-.68.3-.68.68v1.91h-1.75c-.37,0-.68.3-.68.68s.3.68.68.68h1.75v1.66c-1.69.26-3.05,1.51-3.45,3.16l-.78-1v-5.96c0-4.91-3.82-8.94-8.65-9.29v-2.01h2.05c.37,0,.68-.3.68-.68s-.3-.68-.68-.68h-2.05v-2.23c0-.37-.3-.68-.68-.68s-.68.3-.68.68v2.23h-2.05c-.37,0-.68.3-.68.68s.3.68.68.68h2.05v2.01c-4.83.35-8.65,4.38-8.65,9.29v5.96l-.78,1c-.39-1.63-1.72-2.88-3.39-3.15v-1.67h1.75c.37,0,.68-.3.68-.68s-.3-.68-.68-.68h-1.75v-1.91c0-.37-.3-.68-.68-.68s-.68.3-.68.68v1.91h-1.75c-.37,0-.68.3-.68.68s.3.68.68.68h1.75v1.67c-1.99.33-3.52,2.04-3.52,4.13v2.63l-.57.57c-.11.11-.18.25-.19.41l-.19,1.91h-2.67V6.66c0-.37-.3-.68-.68-.68h-16.69v-2.31c0-.37-.3-.68-.68-.68s-.68.3-.68.68v2.31h-2.73V.68c0-.37-.3-.68-.68-.68s-.68.3-.68.68v5.31h-4.29c-.37,0-.68.3-.68.68v15.7c0,.37.3.68.68.68s.68-.3.68-.68v-12.03h25.07v27.28c0,.37.3.68.67.68h3.96c.35,0,.64-.26.67-.6l.23-2.28.6-.6c.13-.13.2-.3.2-.48v-2.91c0-1.56,1.26-2.82,2.81-2.84.01,0,.02,0,.03,0s.02,0,.03,0c1.55.02,2.81,1.28,2.81,2.84v4.61c0,.37.3.68.68.68s.68-.3.68-.68v-3.56l1.86-2.37c.09-.12.15-.27.15-.42v-6.19c0-4.4,3.58-7.97,7.97-7.97s7.97,3.58,7.97,7.97v6.19c0,.15.05.3.15.42l1.86,2.37v3.56c0,.37.3.68.68.68s.68-.3.68-.68v-4.61c0-1.57,1.28-2.84,2.84-2.84,0,0,0,0,0,0,.02,0,.03.01.05.01,0,0,.01,0,.02,0,1.53.04,2.77,1.29,2.77,2.84v2.91c0,.18.07.35.2.48l.6.6.23,2.28c.03.34.32.61.67.61h4.38c.37,0,.68-.3.68-.68v-3.12l7.08-7.08h16.49l1.49,7.75v3.5c0,.37.3.68.68.68h3.9c.37,0,.68-.3.68-.68v-2.06l3.39-3.39h11.8c.37,0,.68-.3.68-.68s-.3-.68-.68-.68ZM119.88,8.98v-1.64h25.07v1.64h-25.07Z"/>
        <path class="cls-1" d="M64.71,53.25c-.37,0-.68.3-.68.68v3.94c0,.37.3.68.68.68s.68-.3.68-.68v-3.94c0-.37-.3-.68-.68-.68Z"/>
        <path class="cls-1" d="M119.2,25.81c-.37,0-.68.3-.68.68v2.85c0,.37.3.68.68.68s.68-.3.68-.68v-2.85c0-.37-.3-.68-.68-.68Z"/>
        <path class="cls-1" d="M123.08,14.16c-.37,0-.68.3-.68.68v1.92c0,.37.3.68.68.68s.68-.3.68-.68v-1.92c0-.37-.3-.68-.68-.68Z"/>
        <path class="cls-1" d="M130.59,14.16c-.37,0-.68.3-.68.68v1.92c0,.37.3.68.68.68s.68-.3.68-.68v-1.92c0-.37-.3-.68-.68-.68Z"/>
        <path class="cls-1" d="M134.35,14.16c-.37,0-.68.3-.68.68v1.92c0,.37.3.68.68.68s.68-.3.68-.68v-1.92c0-.37-.3-.68-.68-.68Z"/>
        <path class="cls-1" d="M138.1,14.16c-.37,0-.68.3-.68.68v1.92c0,.37.3.68.68.68s.68-.3.68-.68v-1.92c0-.37-.3-.68-.68-.68Z"/>
        <path class="cls-1" d="M123.08,21.27c-.37,0-.68.3-.68.68v1.92c0,.37.3.68.68.68s.68-.3.68-.68v-1.92c0-.37-.3-.68-.68-.68Z"/>
        <path class="cls-1" d="M130.59,21.27c-.37,0-.68.3-.68.68v1.92c0,.37.3.68.68.68s.68-.3.68-.68v-1.92c0-.37-.3-.68-.68-.68Z"/>
        <path class="cls-1" d="M138.1,21.27c-.37,0-.68.3-.68.68v1.92c0,.37.3.68.68.68s.68-.3.68-.68v-1.92c0-.37-.3-.68-.68-.68Z"/>
        <path class="cls-1" d="M141.86,21.27c-.37,0-.68.3-.68.68v1.92c0,.37.3.68.68.68s.68-.3.68-.68v-1.92c0-.37-.3-.68-.68-.68Z"/>
        <path class="cls-1" d="M126.83,28.38c-.37,0-.68.3-.68.68v1.92c0,.37.3.68.68.68s.68-.3.68-.68v-1.92c0-.37-.3-.68-.68-.68Z"/>
        <path class="cls-1" d="M130.59,28.38c-.37,0-.68.3-.68.68v1.92c0,.37.3.68.68.68s.68-.3.68-.68v-1.92c0-.37-.3-.68-.68-.68Z"/>
        <path class="cls-1" d="M134.35,28.38c-.37,0-.68.3-.68.68v1.92c0,.37.3.68.68.68s.68-.3.68-.68v-1.92c0-.37-.3-.68-.68-.68Z"/>
        <path class="cls-1" d="M141.86,28.38c-.37,0-.68.3-.68.68v1.92c0,.37.3.68.68.68s.68-.3.68-.68v-1.92c0-.37-.3-.68-.68-.68Z"/>
        <path class="cls-1" d="M123.08,35.48c-.37,0-.68.3-.68.68v1.92c0,.37.3.68.68.68s.68-.3.68-.68v-1.92c0-.37-.3-.68-.68-.68Z"/>
        <path class="cls-1" d="M130.59,35.48c-.37,0-.68.3-.68.68v1.92c0,.37.3.68.68.68s.68-.3.68-.68v-1.92c0-.37-.3-.68-.68-.68Z"/>
        <path class="cls-1" d="M134.35,35.48c-.37,0-.68.3-.68.68v1.92c0,.37.3.68.68.68s.68-.3.68-.68v-1.92c0-.37-.3-.68-.68-.68Z"/>
        <path class="cls-1" d="M138.1,35.48c-.37,0-.68.3-.68.68v1.92c0,.37.3.68.68.68s.68-.3.68-.68v-1.92c0-.37-.3-.68-.68-.68Z"/>
        <path class="cls-1" d="M70.35,28.38c-.37,0-.68.3-.68.68v1.92c0,.37.3.68.68.68s.68-.3.68-.68v-1.92c0-.37-.3-.68-.68-.68Z"/>
        <path class="cls-1" d="M74.1,28.38c-.37,0-.68.3-.68.68v1.92c0,.37.3.68.68.68s.68-.3.68-.68v-1.92c0-.37-.3-.68-.68-.68Z"/>
        <path class="cls-1" d="M70.35,35.48c-.37,0-.68.3-.68.68v1.92c0,.37.3.68.68.68s.68-.3.68-.68v-1.92c0-.37-.3-.68-.68-.68Z"/>
        <path class="cls-1" d="M70.35,42.59c-.37,0-.68.3-.68.68v1.92c0,.37.3.68.68.68s.68-.3.68-.68v-1.92c0-.37-.3-.68-.68-.68Z"/>
        <path class="cls-1" d="M74.1,42.59c-.37,0-.68.3-.68.68v1.92c0,.37.3.68.68.68s.68-.3.68-.68v-1.92c0-.37-.3-.68-.68-.68Z"/>
        <path class="cls-1" d="M70.35,49.7c-.37,0-.68.3-.68.68v1.92c0,.37.3.68.68.68s.68-.3.68-.68v-1.92c0-.37-.3-.68-.68-.68Z"/>
        <path class="cls-1" d="M74.1,49.7c-.37,0-.68.3-.68.68v1.92c0,.37.3.68.68.68s.68-.3.68-.68v-1.92c0-.37-.3-.68-.68-.68Z"/>
        <path class="cls-1" d="M80.47,28.38c-.37,0-.68.3-.68.68v1.92c0,.37.3.68.68.68s.68-.3.68-.68v-1.92c0-.37-.3-.68-.68-.68Z"/>
        <path class="cls-1" d="M80.47,35.48c-.37,0-.68.3-.68.68v1.92c0,.37.3.68.68.68s.68-.3.68-.68v-1.92c0-.37-.3-.68-.68-.68Z"/>
        <path class="cls-1" d="M80.47,42.3c-.37,0-.68.3-.68.68v1.92c0,.37.3.68.68.68s.68-.3.68-.68v-1.92c0-.37-.3-.68-.68-.68Z"/>
        <path class="cls-1" d="M242.29,31.86h-2.03c-.37,0-.68.3-.68.68s.3.68.68.68h2.03c.37,0,.68-.3.68-.68s-.3-.68-.68-.68Z"/>
      </g>
    </g>
  </g>
</svg>